<svg width="35" height="35" viewBox="0 0 35 35" fill="none" xmlns="http://www.w3.org/2000/svg">
<path d="M23.3333 11.6667C25.654 11.6667 27.8796 12.5885 29.5205 14.2295C31.1615 15.8704 32.0833 18.096 32.0833 20.4167V30.625H26.25V20.4167C26.25 19.6431 25.9427 18.9013 25.3957 18.3543C24.8488 17.8073 24.1069 17.5 23.3333 17.5C22.5598 17.5 21.8179 17.8073 21.2709 18.3543C20.724 18.9013 20.4167 19.6431 20.4167 20.4167V30.625H14.5833V20.4167C14.5833 18.096 15.5052 15.8704 17.1462 14.2295C18.7871 12.5885 21.0127 11.6667 23.3333 11.6667Z" stroke="white" stroke-width="2" stroke-linecap="round" stroke-linejoin="round"/>
<path d="M8.74999 13.125H2.91666V30.625H8.74999V13.125Z" stroke="white" stroke-width="2" stroke-linecap="round" stroke-linejoin="round"/>
<path d="M5.83332 8.75C7.44415 8.75 8.74999 7.44417 8.74999 5.83334C8.74999 4.22251 7.44415 2.91667 5.83332 2.91667C4.22249 2.91667 2.91666 4.22251 2.91666 5.83334C2.91666 7.44417 4.22249 8.75 5.83332 8.75Z" stroke="white" stroke-width="2" stroke-linecap="round" stroke-linejoin="round"/>
</svg>
