<svg width="35" height="35" viewBox="0 0 35 35" fill="none" xmlns="http://www.w3.org/2000/svg">
<path d="M33.5417 4.375C32.1452 5.36007 30.5989 6.11349 28.9625 6.60625C28.0842 5.59637 26.917 4.88059 25.6186 4.55573C24.3202 4.23086 22.9534 4.31258 21.703 4.78983C20.4526 5.26708 19.379 6.11684 18.6273 7.22417C17.8756 8.33151 17.4821 9.64299 17.5 10.9813V12.4396C14.9372 12.506 12.3977 11.9376 10.1077 10.785C7.81776 9.63241 5.84839 7.93134 4.37501 5.83333C4.37501 5.83333 -1.45832 18.9583 11.6667 24.7917C8.66328 26.8304 5.08545 27.8526 1.45834 27.7083C14.5833 35 30.625 27.7083 30.625 10.9375C30.6237 10.5313 30.5846 10.1261 30.5083 9.72708C31.9967 8.25926 33.0471 6.40604 33.5417 4.375Z" stroke="white" stroke-width="2" stroke-linecap="round" stroke-linejoin="round"/>
</svg>
