<svg width="35" height="35" viewBox="0 0 35 35" fill="none" xmlns="http://www.w3.org/2000/svg">
<path d="M13.125 27.7083C5.83332 29.8958 5.83332 24.0625 2.91666 23.3333M23.3333 32.0833V26.4396C23.388 25.7442 23.2941 25.0451 23.0577 24.3889C22.8214 23.7326 22.448 23.1342 21.9625 22.6333C26.5417 22.1229 31.3542 20.3875 31.3542 12.425C31.3538 10.3889 30.5706 8.43091 29.1667 6.95625C29.8314 5.1749 29.7844 3.20592 29.0354 1.45833C29.0354 1.45833 27.3146 0.947915 23.3333 3.61666C19.9908 2.71078 16.4675 2.71078 13.125 3.61666C9.14374 0.947915 7.42291 1.45833 7.42291 1.45833C6.67387 3.20592 6.62687 5.1749 7.29166 6.95625C5.87726 8.44185 5.09325 10.4175 5.10416 12.4687C5.10416 20.3729 9.91666 22.1083 14.4958 22.6771C14.016 23.1729 13.646 23.7641 13.4098 24.4124C13.1736 25.0606 13.0766 25.7513 13.125 26.4396V32.0833" stroke="white" stroke-width="2" stroke-linecap="round" stroke-linejoin="round"/>
</svg>
